<?xml version="1.0" standalone="no"?>
<!DOCTYPE svg PUBLIC "-//W3C//DTD SVG 20010904//EN"
 "http://www.w3.org/TR/2001/REC-SVG-20010904/DTD/svg10.dtd">
<svg version="1.0" xmlns="http://www.w3.org/2000/svg"
 width="100px" height="100px" viewBox="0 0 200.000000 200.000000"
 preserveAspectRatio="xMidYMid meet">

<g transform="translate(0.000000,200.000000) scale(0.100000,-0.100000)"
fill="white" stroke="none">
<path d="M1124 1405 c-52 -28 -75 -34 -100 -29 -80 15 -188 -47 -228 -131 -21
-43 -24 -127 -6 -179 12 -37 12 -39 -29 -80 -45 -46 -53 -82 -23 -109 30 -27
60 -20 110 27 41 38 50 43 67 33 11 -6 49 -11 85 -11 133 -1 222 86 225 220 2
47 8 69 29 100 14 22 32 66 38 97 11 50 10 58 -7 77 -28 31 -82 26 -161 -15z
m140 19 c21 -8 21 -82 1 -130 -8 -20 -46 -68 -85 -108 -38 -40 -70 -78 -70
-84 0 -17 -25 -15 -40 3 -7 8 -17 15 -22 15 -6 0 -5 -6 1 -14 10 -12 8 -17
-10 -26 -19 -11 -27 -6 -75 41 -56 56 -63 69 -41 88 10 8 22 1 52 -29 22 -22
44 -40 49 -40 6 0 -10 20 -34 45 l-44 45 64 66 c102 103 196 150 254 128z
m-354 -189 c-23 -19 -48 -35 -55 -35 -7 0 -22 -3 -32 -6 -10 -3 2 13 27 35 30
28 54 41 73 41 l29 0 -42 -35z m25 -161 c14 -15 25 -31 25 -35 0 -5 -35 -42
-77 -84 -58 -56 -85 -75 -105 -75 -31 0 -54 31 -41 55 15 25 153 165 164 165
5 0 21 -12 34 -26z m156 -79 c-28 -31 -41 -39 -41 -27 0 22 26 71 53 100 l22
24 3 -27 c3 -19 -7 -38 -37 -70z"/>
<path d="M1107 1332 c-53 -58 28 -137 83 -82 21 21 24 37 14 64 -10 27 -19 18
-19 -21 0 -34 -3 -38 -28 -41 -57 -7 -76 42 -31 77 17 13 21 21 12 21 -8 0
-22 -8 -31 -18z"/>
<path d="M1125 1310 c-3 -5 -2 -10 4 -10 5 0 13 5 16 10 3 6 2 10 -4 10 -5 0
-13 -4 -16 -10z"/>
<path d="M1265 749 c-4 -6 -1 -15 6 -20 10 -6 6 -9 -13 -9 -15 0 -33 -7 -41
-15 -13 -12 -16 -12 -20 0 -4 9 -22 14 -58 13 l-51 0 6 -30 c3 -17 6 -44 6
-60 0 -26 3 -29 28 -26 23 3 27 8 27 35 0 25 5 33 22 36 18 3 23 0 23 -18 0
-12 8 -29 18 -37 20 -19 99 -22 104 -5 3 7 2 41 -1 77 -5 57 -9 65 -28 68 -11
2 -24 -2 -28 -9z m2 -91 c-3 -8 -6 -5 -6 6 -1 11 2 17 5 13 3 -3 4 -12 1 -19z"/>
<path d="M462 743 c-21 -4 -23 -9 -20 -71 l3 -67 58 -3 c55 -3 57 -2 57 23 0
20 -5 25 -27 26 -24 2 -25 2 -5 6 32 6 28 33 -5 34 l-28 1 30 7 c21 4 30 12
30 26 0 16 -7 20 -35 21 -19 1 -45 0 -58 -3z"/>
<path d="M966 731 c-13 -15 -26 -18 -52 -14 -33 5 -34 5 -35 -28 l-1 -34 -7
30 c-5 23 -12 31 -34 33 -21 3 -27 -1 -27 -17 0 -27 19 -74 33 -83 8 -5 6 -8
-6 -8 -30 0 -18 -44 13 -48 38 -4 61 19 75 79 9 36 14 45 14 27 2 -61 86 -92
126 -48 26 29 23 89 -5 112 -29 24 -72 23 -94 -1z m51 -68 c-3 -10 -5 -4 -5
12 0 17 2 24 5 18 2 -7 2 -21 0 -30z"/>
<path d="M598 723 c-22 -6 -37 -102 -17 -113 23 -15 98 -10 107 7 8 13 10 13
15 -1 8 -21 80 -22 97 -1 17 20 9 47 -20 63 -23 13 -23 13 -2 9 17 -4 22 -1
22 14 0 24 -43 35 -76 20 -32 -14 -33 -58 -1 -71 20 -9 19 -9 -8 -6 -26 2 -30
7 -33 35 -2 23 -10 35 -28 42 -26 9 -28 9 -56 2z m19 -39 c-3 -3 -12 -4 -19
-1 -8 3 -5 6 6 6 11 1 17 -2 13 -5z"/>
<path d="M1363 720 c-30 -12 -40 -56 -22 -89 12 -22 22 -26 59 -26 l45 0 3 47
c2 39 -2 49 -20 62 -25 18 -33 19 -65 6z m60 -87 c-7 -2 -19 -2 -25 0 -7 3 -2
5 12 5 14 0 19 -2 13 -5z"/>
<path d="M1462 663 c3 -55 4 -58 31 -61 25 -3 27 -1 27 32 0 29 4 36 20 36 15
0 20 7 20 25 0 19 -5 25 -23 25 -13 0 -29 -6 -36 -12 -11 -10 -13 -10 -7 0 5
8 0 12 -14 12 -19 0 -21 -5 -18 -57z"/>
</g>
</svg>
